<svg width="21" height="22" viewBox="0 0 21 22" fill="none" xmlns="http://www.w3.org/2000/svg">
<path d="M7.42549 20.5636V17.2423C7.42549 16.3944 8.11783 15.7071 8.97188 15.7071H12.0938C12.504 15.7071 12.8973 15.8689 13.1873 16.1568C13.4773 16.4447 13.6402 16.8351 13.6402 17.2423V20.5636C13.6376 20.9161 13.7769 21.255 14.027 21.5052C14.2772 21.7553 14.6176 21.896 14.9726 21.896H17.1026C18.0973 21.8986 19.0522 21.5081 19.7565 20.8107C20.4609 20.1133 20.8567 19.1664 20.8567 18.1788V8.71691C20.8567 7.9192 20.5005 7.16253 19.8841 6.65074L12.6385 0.906008C11.3781 -0.101239 9.5722 -0.0687175 8.34943 0.983249L1.26913 6.65074C0.623623 7.14744 0.237815 7.90636 0.21875 8.71691V18.1692C0.21875 20.2274 1.89953 21.896 3.97287 21.896H6.05417C6.79163 21.896 7.39097 21.3053 7.39631 20.5733L7.42549 20.5636Z" fill="black"/>
</svg>
